PathFileType	4	(X/Y/Z)	 control3min.trc
DataRate	CameraRate	NumFrames	NumMarkers	Units	OrigDataRate	OrigDataStartFrame	OrigNumFrames
200	200	8	43	m	200	876	1000
Frame#	Time	C7			LSH			RSH			MAN			RASI			LASI			HIPR			HIPL			RPSI			LPSI			COX			RTHI1			RTHI2			RTHI3			RTHI4			RLKN			RMKN			RSHA1			RSHA2			RSHA3			RSHA4			RLMAL			RMMAL			RHEEL			RMET5			RMET1			RTOE			LTHI1			LTHI2			LTHI3			LTHI4			LLKN			LMKN			LSHA1			LSHA2			LSHA3			LSHA4			LLMAL			LMMAL			LHEEL			LMET5			LMET1			LTOE			
		X1	Y1	Z1	X2	Y2	Z2	X3	Y3	Z3	X4	Y4	Z4	X5	Y5	Z5	X6	Y6	Z6	X7	Y7	Z7	X8	Y8	Z8	X9	Y9	Z9	X10	Y10	Z10	X11	Y11	Z11	X12	Y12	Z12	X13	Y13	Z13	X14	Y14	Z14	X15	Y15	Z15	X16	Y16	Z16	X17	Y17	Z17	X18	Y18	Z18	X19	Y19	Z19	X20	Y20	Z20	X21	Y21	Z21	X22	Y22	Z22	X23	Y23	Z23	X24	Y24	Z24	X25	Y25	Z25	X26	Y26	Z26	X27	Y27	Z27	X28	Y28	Z28	X29	Y29	Z29	X30	Y30	Z30	X31	Y31	Z31	X32	Y32	Z32	X33	Y33	Z33	X34	Y34	Z34	X35	Y35	Z35	X36	Y36	Z36	X37	Y37	Z37	X38	Y38	Z38	X39	Y39	Z39	X40	Y40	Z40	X41	Y41	Z41	X42	Y42	Z42	X43	Y43	Z43	
876	4.3800	-0.264209	1.533237	-0.568000	-0.231475	1.486555	-0.783594	-0.187010	1.487360	-0.363776	-0.141291	1.440740	-0.573070	-0.213127	1.017468	-0.436032	-0.217883	1.007765	-0.677291	-0.296254	1.077915	-0.387705	-0.301320	1.078501	-0.722831	-0.394254	1.053075	-0.508443	-0.391768	1.053251	-0.601368	-0.396003	1.052905	-0.554649	-0.279913	0.805114	-0.352393	-0.265253	0.747175	-0.346445	-0.201814	0.758973	-0.348138	-0.208225	0.819968	-0.355105	-0.210402	0.489422	-0.357059	-0.211759	0.473578	-0.474552	-0.310627	0.337554	-0.326209	-0.331502	0.301616	-0.336135	-0.277270	0.280520	-0.353932	-0.262399	0.316140	-0.347040	-0.395526	0.126778	-0.348736	-0.364980	0.117480	-0.436456	-0.447470	0.109022	-0.393208	-0.294020	0.032777	-0.319139	-0.252278	0.042388	-0.393703	-0.221979	0.031513	-0.393284	-0.289991	0.751261	-0.744533	-0.274706	0.691606	-0.747750	-0.210862	0.702203	-0.755184	-0.218802	0.761685	-0.753463	-0.226901	0.477148	-0.729747	-0.206772	0.470663	-0.618817	-0.334488	0.311949	-0.744319	-0.351861	0.275806	-0.734548	-0.294653	0.256666	-0.723671	-0.282927	0.298170	-0.735593	-0.391380	0.101052	-0.722252	-0.374250	0.106346	-0.629685	-0.455943	0.085938	-0.680905	-0.288106	0.028299	-0.741001	-0.251314	0.039235	-0.659489	-0.223692	0.028303	-0.658055	
877	4.3850	-0.264578	1.537665	-0.567872	-0.232142	1.491677	-0.783347	-0.187473	1.492334	-0.363836	-0.141486	1.445871	-0.573089	-0.212533	1.021640	-0.436203	-0.217323	1.011833	-0.677447	-0.295203	1.082578	-0.388149	-0.300156	1.083286	-0.722960	-0.393445	1.057729	-0.508686	-0.390920	1.057917	-0.601599	-0.395154	1.057626	-0.554893	-0.280407	0.809283	-0.352601	-0.266161	0.751266	-0.346521	-0.202554	0.762747	-0.348020	-0.208629	0.823767	-0.355023	-0.212679	0.493366	-0.356852	-0.214027	0.477426	-0.474409	-0.311728	0.340613	-0.325877	-0.332235	0.304439	-0.335765	-0.277684	0.283857	-0.353339	-0.263287	0.319583	-0.346597	-0.394569	0.128893	-0.348305	-0.363742	0.119711	-0.435652	-0.446130	0.111570	-0.392598	-0.293511	0.033127	-0.319258	-0.252039	0.042496	-0.393636	-0.221952	0.031556	-0.393277	-0.290590	0.755518	-0.744786	-0.275655	0.695772	-0.748041	-0.211736	0.706011	-0.755407	-0.219338	0.765532	-0.753626	-0.229087	0.481067	-0.729987	-0.208804	0.474770	-0.618891	-0.335506	0.315075	-0.744430	-0.352553	0.278777	-0.734609	-0.295158	0.259992	-0.724182	-0.283798	0.301611	-0.736073	-0.390618	0.103499	-0.722628	-0.373002	0.108778	-0.630247	-0.454719	0.088775	-0.680960	-0.287750	0.028663	-0.740773	-0.251107	0.039296	-0.659657	-0.223667	0.028340	-0.658142	
878	4.3900	-0.264924	1.542081	-0.567733	-0.232727	1.496792	-0.783074	-0.187915	1.497295	-0.363904	-0.141650	1.450981	-0.573091	-0.211948	1.025815	-0.436387	-0.216801	1.015915	-0.677592	-0.294224	1.087376	-0.388642	-0.299170	1.088172	-0.723048	-0.392656	1.062435	-0.508913	-0.390096	1.062627	-0.601815	-0.394321	1.062402	-0.555117	-0.280867	0.813453	-0.352798	-0.267040	0.755374	-0.346572	-0.203261	0.766546	-0.347899	-0.209013	0.827580	-0.354946	-0.214943	0.497350	-0.356667	-0.216236	0.481286	-0.474276	-0.312771	0.343715	-0.325536	-0.332887	0.307316	-0.335360	-0.278031	0.287231	-0.352762	-0.264108	0.323106	-0.346137	-0.393377	0.131146	-0.347715	-0.362406	0.121967	-0.434838	-0.444717	0.114151	-0.391973	-0.292976	0.033499	-0.319398	-0.251755	0.042658	-0.393617	-0.221905	0.031601	-0.393264	-0.291184	0.759806	-0.745064	-0.276594	0.699973	-0.748371	-0.212608	0.709866	-0.755693	-0.219880	0.769422	-0.753841	-0.231211	0.485023	-0.730289	-0.210686	0.478827	-0.619100	-0.336460	0.318252	-0.744582	-0.353174	0.281811	-0.734723	-0.295596	0.263376	-0.724781	-0.284605	0.305104	-0.736634	-0.389746	0.106001	-0.723084	-0.371630	0.111267	-0.630893	-0.453401	0.091695	-0.681080	-0.287370	0.029036	-0.740583	-0.250885	0.039379	-0.659858	-0.223639	0.028379	-0.658252	
879	4.3950	-0.265252	1.546457	-0.567587	-0.233233	1.501865	-0.782779	-0.188332	1.502210	-0.363978	-0.141780	1.456045	-0.573071	-0.211376	1.029976	-0.436591	-0.216317	1.019990	-0.677734	-0.293329	1.092253	-0.389170	-0.298362	1.093136	-0.723092	-0.391890	1.067162	-0.509124	-0.389306	1.067345	-0.602030	-0.393508	1.067188	-0.555321	-0.281292	0.817596	-0.352959	-0.267880	0.759465	-0.346598	-0.203926	0.770343	-0.347780	-0.209372	0.831385	-0.354876	-0.217182	0.501338	-0.356504	-0.218394	0.485129	-0.474160	-0.313753	0.346844	-0.325189	-0.333455	0.310227	-0.334918	-0.278308	0.290613	-0.352204	-0.264865	0.326664	-0.345670	-0.391966	0.133504	-0.347005	-0.360976	0.124243	-0.434020	-0.443232	0.116757	-0.391346	-0.292411	0.033904	-0.319548	-0.251415	0.042888	-0.393670	-0.221832	0.031645	-0.393238	-0.291771	0.764094	-0.745368	-0.277514	0.704182	-0.748735	-0.213469	0.713734	-0.756039	-0.220420	0.773326	-0.754111	-0.233271	0.488985	-0.730641	-0.212410	0.482794	-0.619442	-0.337338	0.321453	-0.744779	-0.353718	0.284884	-0.734888	-0.295956	0.266798	-0.725465	-0.285340	0.308622	-0.737275	-0.388771	0.108536	-0.723613	-0.370148	0.113780	-0.631618	-0.451997	0.094671	-0.681268	-0.286971	0.029413	-0.740426	-0.250647	0.039491	-0.660086	-0.223611	0.028417	-0.658389	
880	4.4000	-0.265563	1.550768	-0.567439	-0.233655	1.506875	-0.782473	-0.188724	1.507045	-0.364059	-0.141884	1.461031	-0.573035	-0.210820	1.034087	-0.436811	-0.215871	1.024038	-0.677878	-0.292510	1.097175	-0.389715	-0.297766	1.098140	-0.723143	-0.391149	1.071877	-0.509312	-0.388558	1.072046	-0.602235	-0.392717	1.071958	-0.555498	-0.281678	0.821692	-0.353129	-0.268639	0.763518	-0.346623	-0.204549	0.774102	-0.347666	-0.209698	0.835157	-0.354821	-0.219387	0.505305	-0.356363	-0.220503	0.488921	-0.474058	-0.314653	0.349963	-0.324831	-0.333936	0.313121	-0.334451	-0.278526	0.293974	-0.351689	-0.265514	0.330247	-0.345174	-0.390352	0.135938	-0.346185	-0.359470	0.126515	-0.433204	-0.441681	0.119386	-0.390726	-0.291814	0.034353	-0.319740	-0.251018	0.043191	-0.393797	-0.221724	0.031686	-0.393199	-0.292349	0.768351	-0.745692	-0.278405	0.708369	-0.749123	-0.214306	0.717604	-0.756438	-0.220960	0.777223	-0.754431	-0.235255	0.492935	-0.731038	-0.213956	0.486662	-0.619902	-0.338131	0.324659	-0.745016	-0.354188	0.287943	-0.735107	-0.296230	0.270233	-0.726223	-0.285995	0.312142	-0.737984	-0.387697	0.111077	-0.724215	-0.368575	0.116299	-0.632410	-0.450514	0.097680	-0.681522	-0.286557	0.029782	-0.740302	-0.250390	0.039650	-0.660323	-0.223576	0.028467	-0.658556	
881	4.4050	-0.265858	1.554995	-0.567288	-0.233987	1.511791	-0.782156	-0.189085	1.511768	-0.364146	-0.141958	1.465910	-0.572981	-0.210278	1.038128	-0.437048	-0.215474	1.028037	-0.678027	-0.291758	1.102095	-0.390265	-0.297382	1.103152	-0.723211	-0.390439	1.076544	-0.509476	-0.387853	1.076689	-0.602433	-0.391952	1.076673	-0.555648	-0.282027	0.825729	-0.353304	-0.269307	0.767515	-0.346643	-0.205127	0.777807	-0.347555	-0.209987	0.838875	-0.354787	-0.221538	0.509219	-0.356242	-0.222575	0.492628	-0.473973	-0.315483	0.353044	-0.324464	-0.334324	0.315988	-0.333961	-0.278661	0.297293	-0.351202	-0.266044	0.333814	-0.344639	-0.388687	0.138319	-0.345397	-0.357889	0.128765	-0.432396	-0.440089	0.122001	-0.390103	-0.291186	0.034848	-0.319977	-0.250565	0.043577	-0.393993	-0.221576	0.031728	-0.393137	-0.292919	0.772552	-0.746029	-0.279256	0.712513	-0.749532	-0.215121	0.721444	-0.756872	-0.221497	0.781091	-0.754795	-0.237158	0.496844	-0.731468	-0.215334	0.490427	-0.620460	-0.338837	0.327846	-0.745286	-0.354571	0.290979	-0.735367	-0.296422	0.273659	-0.727041	-0.286566	0.315636	-0.738736	-0.386527	0.113603	-0.724885	-0.366923	0.118817	-0.633272	-0.448960	0.100699	-0.681838	-0.286132	0.030142	-0.740205	-0.250096	0.039881	-0.660550	-0.223521	0.028529	-0.658754	
882	4.4100	-0.266140	1.559109	-0.567137	-0.234232	1.516588	-0.781832	-0.189414	1.516350	-0.364237	-0.142038	1.470667	-0.572917	-0.209775	1.042084	-0.437310	-0.215121	1.031974	-0.678186	-0.291071	1.106977	-0.390797	-0.297188	1.108144	-0.723317	-0.389763	1.081137	-0.509616	-0.387186	1.081247	-0.602580	-0.391219	1.081313	-0.555781	-0.282340	0.829678	-0.353440	-0.269886	0.771420	-0.346656	-0.205659	0.781429	-0.347451	-0.210244	0.842516	-0.354768	-0.223625	0.513054	-0.356143	-0.224622	0.496229	-0.473904	-0.316193	0.356069	-0.324048	-0.334679	0.318800	-0.333530	-0.278744	0.300573	-0.350734	-0.266451	0.337322	-0.344088	-0.386986	0.140646	-0.344633	-0.356233	0.131006	-0.431624	-0.438462	0.124578	-0.389486	-0.290525	0.035380	-0.320220	-0.250023	0.044069	-0.394257	-0.221359	0.031796	-0.393051	-0.293474	0.776663	-0.746377	-0.280073	0.716574	-0.749951	-0.215907	0.725231	-0.757342	-0.222028	0.784900	-0.755198	-0.238979	0.500689	-0.731915	-0.216548	0.494077	-0.621089	-0.339450	0.330992	-0.745577	-0.354867	0.293972	-0.735663	-0.296525	0.277044	-0.727898	-0.287054	0.319083	-0.739510	-0.385275	0.116091	-0.725611	-0.365218	0.121306	-0.634195	-0.447348	0.103707	-0.682216	-0.285689	0.030497	-0.740123	-0.249759	0.040189	-0.660764	-0.223439	0.028607	-0.658993	
883	4.4150	-0.266410	1.563099	-0.566984	-0.234393	1.521242	-0.781507	-0.189708	1.520761	-0.364329	-0.142150	1.475295	-0.572850	-0.209318	1.045923	-0.437596	-0.214816	1.035832	-0.678360	-0.290444	1.111766	-0.391299	-0.297164	1.113076	-0.723464	-0.389121	1.085622	-0.509730	-0.386571	1.085697	-0.602695	-0.390519	1.085836	-0.555885	-0.282618	0.833523	-0.353578	-0.270401	0.775215	-0.346659	-0.206146	0.784952	-0.347359	-0.210468	0.846058	-0.354774	-0.225641	0.516785	-0.356068	-0.226659	0.499722	-0.473854	-0.316794	0.359009	-0.323614	-0.334947	0.321517	-0.333109	-0.278774	0.303784	-0.350294	-0.266745	0.340727	-0.343548	-0.385315	0.142864	-0.343933	-0.354524	0.133227	-0.430892	-0.436819	0.127102	-0.388863	-0.289834	0.035965	-0.320501	-0.249416	0.044624	-0.394525	-0.221076	0.031899	-0.392934	-0.294022	0.780661	-0.746731	-0.280851	0.720532	-0.750371	-0.216661	0.728941	-0.757832	-0.222552	0.788630	-0.755629	-0.240711	0.504440	-0.732365	-0.217618	0.497597	-0.621765	-0.339970	0.334078	-0.745883	-0.355082	0.296899	-0.735989	-0.296542	0.280373	-0.728774	-0.287454	0.322472	-0.740284	-0.383951	0.118529	-0.726389	-0.363465	0.123748	-0.635168	-0.445691	0.106677	-0.682647	-0.285225	0.030860	-0.740047	-0.249378	0.040578	-0.660967	-0.223329	0.028709	-0.659284	
